# xmcd CD database file
#
# Track frame offsets:
#	182
#	18717
#	36582
#
# Disc length: 700 seconds
#
# Revision: 1
# Processed by: cddbd v1.4PL0 Copyright (c) Steve Scherf et al.
# Submitted via: NotifyCDPlayer 1.60beta13
#
DISCID=2402ba03
DTITLE=Jeff Healey Band - Stuck In The Middle With You
DYEAR=1995
DGENRE=Blues
TTITLE0=Stuck In The Middle With You
TTITLE1=Badge
TTITLE2=For What It's Worth
EXTD=
EXTT0=
EXTT1=
EXTT2=
PLAYORDER=
